<svg xmlns="http://www.w3.org/2000/svg" viewBox="0 0 100 100">
<defs><linearGradient id="g" x1="0" x2="1"><stop stop-color="#8c6cff"/><stop offset="1" stop-color="#4f35d2"/></linearGradient></defs>
<rect width="100" height="100" rx="24" fill="url(#g)"/>
<circle cx="34" cy="34" r="14" fill="#f5bf95"/><path d="M19 34c2-15 28-20 30 1-7-8-19-9-30-1" fill="#44271a"/>
<path d="M16 75c2-22 34-22 36 0" fill="#2c5872"/>
<circle cx="68" cy="35" r="13" fill="#f3b88d"/><path d="M54 40c-2-24 28-27 30-3l-2 22H57z" fill="#5a2f1e"/>
<path d="M51 75c2-21 33-21 35 0" fill="#9e4c58"/>
<circle cx="48" cy="58" r="9" fill="#f4be92"/><path d="M38 75c1-14 20-14 21 0" fill="#f2a93b"/>
</svg>